<?xml version="1.0" encoding="UTF-8" standalone="no"?>
<svg xmlns:xlink="http://www.w3.org/1999/xlink" height="265.82499999999993px" width="158.26999999999998px" xmlns="http://www.w3.org/2000/svg">
  <g transform="matrix(0.7, 0.0, 0.0, 0.7, 70.035, 24.71)">
    <use height="44.75" transform="matrix(1.0, 0.0, 0.0, 1.0, -38.5, 299.7)" width="164.55" xlink:href="#shape0"/>
    <use height="50.9" transform="matrix(1.0, 0.0, 0.0, 1.0, -71.55, 99.45)" width="42.6" xlink:href="#sprite0"/>
    <use height="63.35" transform="matrix(0.9, 0.0, 0.0, 0.9, 12.1651, 150.8152)" width="40.35" xlink:href="#shape2"/>
    <use height="91.45" transform="matrix(0.9991, -0.0403, 0.0423, 1.0482, -23.3493, -33.3697)" width="48.25" xlink:href="#sprite1"/>
    <use height="129.25" transform="matrix(0.9, 0.0, 0.0, 0.9, 34.65, 203.05)" width="69.35" xlink:href="#sprite2"/>
    <use height="155.85" transform="matrix(1.0, 0.0, 0.0, 1.0, -39.8, 35.7)" width="121.65" xlink:href="#sprite5"/>
    <use height="83.5" transform="matrix(-0.997, 0.0563, 0.1535, 1.0751, 45.9, 59.35)" width="95.25" xlink:href="#sprite6"/>
    <use height="35.6" transform="matrix(1.0, 0.0, 0.0, 1.0, 61.2, 89.25)" width="21.55" xlink:href="#sprite7"/>
    <use height="63.35" transform="matrix(1.0, 0.0, 0.0, 1.0, 31.25, 152.45)" width="40.35" xlink:href="#shape2"/>
    <use height="37.2" transform="matrix(1.0, 0.0, 0.0, 1.0, 65.9, 302.5)" width="59.65" xlink:href="#sprite3"/>
    <use height="53.7" transform="matrix(0.9978, -0.0121, 0.0121, 0.9978, 71.65, 100.95)" width="51.05" xlink:href="#sprite8"/>
    <use height="99.2" transform="matrix(1.0, 0.0, 0.0, 1.0, 56.2, 210.45)" width="39.5" xlink:href="#sprite4"/>
    <use height="34.9" transform="matrix(1.0, 0.0, 0.0, 1.0, -25.85, 296.45)" width="58.65" xlink:href="#sprite9"/>
    <use height="113.55" transform="matrix(1.0, 0.0, 0.0, 1.0, -12.15, 208.65)" width="43.75" xlink:href="#shape12"/>
    <use height="51.3" transform="matrix(1.0, 0.0, 0.0, 1.0, -35.0, 160.65)" width="41.25" xlink:href="#sprite10"/>
    <use height="91.45" transform="matrix(1.0, 0.0, 0.0, 1.0, 9.7, -31.05)" width="48.25" xlink:href="#sprite1"/>
  </g>
  <defs>
    <g id="shape0" transform="matrix(1.0, 0.0, 0.0, 1.0, 38.5, -299.4)">
      <path d="M20.8 301.65 Q28.5 300.2 35.95 299.7 L45.35 299.4 60.7 300.7 Q67.7 301.0 69.6 307.85 L70.1 310.25 73.55 312.4 Q79.9 317.0 75.0 323.0 L73.15 325.05 73.45 325.2 Q90.7 325.1 107.7 321.85 122.1 319.1 125.95 331.4 127.05 334.85 118.4 339.95 109.75 345.05 90.05 343.95 70.65 342.9 60.75 334.95 L57.45 336.0 41.7 339.2 39.25 339.65 35.1 340.25 Q22.05 341.9 5.25 340.65 L-8.55 338.9 Q-15.3 337.35 -14.3 334.95 -20.35 334.4 -25.85 333.15 -33.65 331.35 -36.6 329.35 -40.3 326.85 -36.7 324.1 -30.15 319.05 -27.65 319.15 -18.9 319.7 -10.6 318.75 L-8.3 317.7 -6.7 318.25 3.65 316.0 Q-0.3 305.6 20.8 301.65" fill="#000000" fill-opacity="0.2" fill-rule="evenodd" stroke="none"/>
    </g>
    <g id="sprite0" transform="matrix(1.0, 0.0, 0.0, 1.0, 0.0, 0.0)">
      <use height="50.9" transform="matrix(1.0, 0.0, 0.0, 1.0, 0.0, 0.0)" width="42.6" xlink:href="#shape1"/>
    </g>
    <g id="shape1" transform="matrix(1.0, 0.0, 0.0, 1.0, 0.0, 0.0)">
      <path d="M37.35 2.15 L35.15 1.55 Q32.1 4.35 27.95 5.35 L28.0 5.8 30.7 9.9 31.35 12.95 37.15 11.35 37.35 2.15 M2.4 31.9 Q3.1 29.85 4.8 28.4 L5.95 27.35 9.35 27.35 Q10.8 25.45 12.8 24.7 L15.55 24.15 Q18.2 25.75 19.35 28.6 L21.75 35.35 26.95 34.35 Q24.55 32.25 26.0 29.6 L26.35 28.95 Q18.9 23.75 17.8 14.6 17.3 10.4 20.65 7.85 24.9 4.55 30.3 3.1 31.6 2.9 32.4 2.1 33.85 0.6 35.8 0.0 L35.55 0.75 38.15 0.55 Q40.8 6.7 37.95 12.75 L28.4 15.95 Q32.15 21.4 37.75 24.9 38.65 25.5 39.25 26.5 40.45 28.5 40.95 30.9 L41.95 34.8 Q44.3 42.35 38.15 47.35 L36.45 48.5 35.0 49.25 Q30.75 51.1 26.4 50.9 L21.95 50.15 Q11.4 46.6 2.5 40.25 -0.05 38.45 0.0 35.55 0.05 33.35 1.95 31.95 L0.95 37.15 Q4.05 40.95 8.55 42.35 4.75 37.35 2.4 31.9 M40.35 32.35 Q38.5 35.6 34.65 35.95 L27.85 35.85 Q22.85 35.8 18.75 38.75 L18.35 37.85 20.35 36.15 Q19.15 30.2 15.55 25.35 14.0 25.3 12.65 26.25 11.75 26.75 10.95 27.55 8.35 36.4 14.1 43.6 17.75 48.1 23.55 49.35 L26.55 49.85 Q31.15 50.25 35.05 48.3 L38.7 45.75 Q40.25 44.4 40.95 42.25 42.55 37.2 40.35 32.35 M33.55 25.75 L33.95 26.15 34.55 23.95 Q29.7 21.65 27.0 16.8 L24.8 20.05 24.15 19.75 24.7 16.7 24.2 16.9 Q23.85 17.45 23.75 18.1 23.4 19.95 21.95 21.35 L22.15 19.35 21.75 18.9 22.15 17.75 Q22.95 15.7 25.3 15.0 L29.75 13.55 Q29.4 9.35 26.35 6.15 22.3 7.3 20.45 11.0 19.85 12.1 19.85 13.35 20.0 23.2 28.35 28.75 31.4 27.9 33.55 25.75 M36.55 25.6 L35.5 24.95 Q33.8 29.75 28.65 30.25 L27.4 30.15 26.55 29.55 Q26.8 33.15 30.25 34.3 34.3 35.45 37.95 33.75 40.85 29.05 36.55 25.6 M10.0 40.45 Q7.5 34.65 8.75 28.55 L7.45 28.75 Q5.5 29.0 4.15 30.55 L4.35 31.95 Q5.55 37.05 9.15 40.75 L10.95 42.15 10.0 40.45" fill="#000000" fill-rule="evenodd" stroke="none"/>
      <path d="M37.35 2.15 L37.15 11.35 31.35 12.95 30.7 9.9 28.0 5.8 27.95 5.35 Q32.1 4.35 35.15 1.55 L37.35 2.15 M33.55 25.75 Q31.4 27.9 28.35 28.75 20.0 23.2 19.85 13.35 19.85 12.1 20.45 11.0 22.3 7.3 26.35 6.15 29.4 9.35 29.75 13.55 L25.3 15.0 Q22.95 15.7 22.15 17.75 L21.75 18.9 22.15 19.35 21.95 21.35 Q23.4 19.95 23.75 18.1 23.85 17.45 24.2 16.9 L24.7 16.7 24.15 19.75 24.8 20.05 27.0 16.8 Q29.7 21.65 34.55 23.95 L33.95 26.15 33.55 25.75" fill="#deddcc" fill-rule="evenodd" stroke="none"/>
      <path d="M1.95 31.95 L2.4 31.9 Q4.75 37.35 8.55 42.35 4.05 40.95 0.95 37.15 L1.95 31.95 M40.35 32.35 Q42.55 37.2 40.95 42.25 40.25 44.4 38.7 45.75 L35.05 48.3 Q31.15 50.25 26.55 49.85 L23.55 49.35 Q17.75 48.1 14.1 43.6 8.35 36.4 10.95 27.55 11.75 26.75 12.65 26.25 14.0 25.3 15.55 25.35 19.15 30.2 20.35 36.15 L18.35 37.85 18.75 38.75 Q22.85 35.8 27.85 35.85 L34.65 35.95 Q38.5 35.6 40.35 32.35 M9.15 40.75 Q5.55 37.05 4.35 31.95 L4.15 30.55 Q5.5 29.0 7.45 28.75 L8.75 28.55 Q7.5 34.65 10.0 40.45 L9.15 40.75" fill="#cccccc" fill-rule="evenodd" stroke="none"/>
      <path d="M36.55 25.6 Q40.85 29.05 37.95 33.75 34.3 35.45 30.25 34.3 26.8 33.15 26.55 29.55 L27.4 30.15 28.65 30.25 Q33.8 29.75 35.5 24.95 L36.55 25.6" fill="#999999" fill-rule="evenodd" stroke="none"/>
      <path d="M10.0 40.45 L10.95 42.15 9.15 40.75 10.0 40.45" fill="#ffffff" fill-rule="evenodd" stroke="none"/>
    </g>
    <g id="shape2" transform="matrix(1.0, 0.0, 0.0, 1.0, 20.15, 31.65)">
      <path d="M13.7 -25.4 Q19.75 -15.15 20.15 -3.6 L20.05 1.6 Q19.65 7.05 18.6 12.4 L18.2 14.4 17.85 15.9 17.6 16.9 17.35 17.75 17.1 18.9 16.85 20.4 16.75 23.05 Q16.8 25.95 15.6 28.45 L15.6 28.5 15.65 28.75 15.05 29.45 14.8 29.85 13.3 30.65 11.6 31.2 8.2 31.6 8.25 31.7 6.9 31.55 3.2 30.2 1.85 29.2 Q0.0 27.45 -0.6 25.0 L-1.2 22.9 -1.25 22.75 -1.7 22.6 Q-7.15 20.6 -11.15 16.9 L-12.15 15.9 -13.5 14.4 -16.1 10.75 -17.75 7.65 -18.65 5.4 Q-19.55 2.9 -19.9 0.4 -20.75 -5.6 -18.45 -11.8 L-17.5 -14.1 Q-13.85 -22.5 -6.6 -28.4 -1.7 -32.4 4.3 -31.5 L4.8 -31.45 Q6.75 -31.3 8.5 -30.45 11.8 -28.7 13.7 -25.4 M-5.15 19.45 L-0.7 21.3 -0.4 20.1 Q1.65 17.9 4.3 16.9 6.4 16.1 8.85 16.1 10.5 16.1 12.1 16.85 L12.2 16.9 Q13.55 17.6 14.8 18.45 L15.2 18.7 15.3 18.4 15.8 16.9 16.1 15.9 16.55 14.4 17.05 12.4 Q18.95 4.5 18.85 -3.6 L18.5 -9.25 Q17.35 -20.6 9.3 -28.8 7.3 -30.85 4.55 -31.1 L4.1 -31.1 Q-2.35 -31.15 -6.95 -26.6 -12.8 -21.1 -15.95 -14.1 L-16.9 -11.8 -17.8 -9.0 -18.75 -5.2 Q-19.3 -2.3 -18.85 0.4 L-18.45 2.3 -17.35 5.4 -15.0 10.05 Q-13.5 12.4 -11.6 14.4 L-10.05 15.9 -8.85 16.9 -6.85 18.4 -6.9 18.4 -5.15 19.45 M3.6 18.9 L0.8 20.7 0.55 21.85 Q0.35 24.45 1.4 26.3 2.35 28.05 4.4 29.2 L4.4 29.3 4.45 29.5 Q8.55 32.4 13.25 29.85 14.2 29.25 14.45 28.25 L14.6 28.3 14.8 27.9 14.95 27.35 Q16.1 23.6 14.2 19.7 9.7 16.0 4.35 18.5 L3.6 18.9 M6.65 29.05 L5.6 28.35 Q8.1 25.55 11.65 26.8 L13.5 27.8 12.45 28.8 Q9.25 30.4 6.7 29.1 L6.7 29.05 6.65 29.05" fill="#000000" fill-rule="evenodd" stroke="none"/>
      <path d="M-6.95 -26.6 Q-2.35 -31.15 4.1 -31.1 L4.55 -31.1 Q7.3 -30.85 9.3 -28.8 17.35 -20.6 18.5 -9.25 L18.85 -3.6 Q18.95 4.5 17.05 12.4 L16.55 14.4 16.1 15.9 15.8 16.9 15.3 18.4 15.2 18.7 14.8 18.45 Q13.55 17.6 12.2 16.9 L12.1 16.85 Q10.5 16.1 8.85 16.1 6.4 16.1 4.3 16.9 1.65 17.9 -0.4 20.1 L-0.7 21.3 -5.15 19.45 -4.65 18.15 Q-6.25 18.2 -3.7 15.9 L-1.9 14.4 -1.7 14.25 -1.2 13.85 2.6 11.1 Q11.95 4.4 -2.95 -22.9 L-5.2 -26.9 -6.65 -25.35 -6.95 -26.6 M-11.95 -12.6 L-11.2 -13.6 -10.65 -13.65 -10.5 -13.7 -11.95 -12.6" fill="#a3a3a3" fill-rule="evenodd" stroke="none"/>
      <path d="M1.4 26.3 L2.65 25.25 Q5.75 21.2 3.6 18.9 L4.35 18.5 Q9.7 16.0 14.2 19.7 16.1 23.6 14.95 27.35 L14.8 27.9 14.6 28.3 14.45 28.25 Q14.2 29.25 13.25 29.85 8.55 32.4 4.45 29.5 L4.4 29.3 4.4 29.2 Q2.35 28.05 1.4 26.3 M6.7 29.1 Q9.25 30.4 12.45 28.8 L13.5 27.8 11.65 26.8 Q8.1 25.55 5.6 28.35 L6.65 29.05 6.7 29.1" fill="#999999" fill-rule="evenodd" stroke="none"/>
      <path d="M-5.15 19.45 L-6.9 18.4 -6.85 18.4 -8.85 16.9 -10.05 15.9 -11.6 14.4 Q-13.5 12.4 -15.0 10.05 L-17.35 5.4 -18.45 2.3 -18.85 0.4 Q-19.3 -2.3 -18.75 -5.2 L-17.8 -9.0 Q-17.9 -7.5 -17.15 -5.8 -14.1 0.75 -12.05 0.1 -10.7 -0.35 -9.1 -2.5 -8.4 -3.45 -7.7 -4.75 -5.2 -14.0 -6.8 -15.8 L-7.3 -16.15 -9.7 -17.1 Q-15.1 -14.7 -16.9 -11.8 L-15.95 -14.1 Q-12.8 -21.1 -6.95 -26.6 L-6.65 -25.35 -5.2 -26.9 -2.95 -22.9 Q11.95 4.4 2.6 11.1 L-1.2 13.85 -1.7 14.25 -1.9 14.4 -3.7 15.9 Q-6.25 18.2 -4.65 18.15 L-5.15 19.45 M1.4 26.3 Q0.35 24.45 0.55 21.85 L0.8 20.7 3.6 18.9 Q5.75 21.2 2.65 25.25 L1.4 26.3" fill="#cccccc" fill-rule="evenodd" stroke="none"/>
      <path d="M6.65 29.05 L6.7 29.05 6.7 29.1 6.65 29.05" fill="#deddcc" fill-rule="evenodd" stroke="none"/>
      <path d="M-17.8 -9.0 L-16.9 -11.8 Q-15.1 -14.7 -9.7 -17.1 L-7.3 -16.15 -6.8 -15.8 Q-5.2 -14.0 -7.7 -4.75 -8.4 -3.45 -9.1 -2.5 -10.7 -0.35 -12.05 0.1 -14.1 0.75 -17.15 -5.8 -17.9 -7.5 -17.8 -9.0 M-11.95 -12.6 L-10.5 -13.7 -10.65 -13.65 -11.2 -13.6 -11.95 -12.6" fill="#e7e7e7" fill-rule="evenodd" stroke="none"/>
    </g>
    <g id="sprite1" transform="matrix(1.0, 0.0, 0.0, 1.0, 0.75, 0.0)">
      <use height="87.4" transform="matrix(1.0, 0.0, 0.0, 1.0, 11.4, 4.05)" width="36.1" xlink:href="#shape3"/>
      <use height="32.55" transform="matrix(1.0, 0.0, 0.0, 1.0, 0.0, 0.0)" width="40.2" xlink:href="#shape4"/>
    </g>
    <g id="shape3" transform="matrix(1.0, 0.0, 0.0, 1.0, -11.4, -4.05)">
      <path d="M35.05 79.1 Q33.5 71.35 35.9 65.75 L41.15 80.65 39.3 80.5 Q37.0 80.4 35.05 79.1 M37.2 81.05 L41.95 82.05 42.6 81.6 42.35 80.65 Q47.25 83.4 46.05 89.15 L37.6 89.5 Q34.6 84.35 37.2 81.05" fill="#a3a3a3" fill-rule="evenodd" stroke="none"/>
      <path d="M28.75 12.0 L30.9 10.65 Q34.3 12.1 37.4 14.6 L38.0 14.6 Q35.05 7.95 28.25 5.4 26.3 4.7 24.45 4.65 20.0 4.45 16.2 7.9 15.1 8.85 14.3 10.1 L14.2 10.2 14.25 10.2 13.7 11.2 Q12.5 13.85 12.85 16.6 12.75 17.75 13.15 18.95 13.2 20.05 13.55 21.1 L13.55 21.25 Q13.45 21.65 13.75 22.0 L13.75 22.15 13.75 22.25 15.0 24.2 15.25 24.8 16.65 27.05 Q19.45 30.65 24.6 30.45 L26.5 30.75 30.1 30.7 Q34.75 30.4 36.85 27.05 L37.75 25.05 36.6 24.0 Q34.45 25.05 32.3 25.7 L32.2 25.7 29.2 25.0 Q26.95 23.25 26.1 21.05 25.1 18.45 26.0 15.2 L28.8 12.0 28.75 12.0 M28.25 14.65 Q26.75 17.0 27.3 20.05 L27.55 21.05 Q28.5 24.1 31.6 24.5 33.15 24.35 33.35 23.75 29.15 22.75 28.85 18.4 28.6 14.85 31.8 13.0 L31.3 12.85 Q30.3 12.45 29.3 13.3 L28.25 14.65 M32.7 17.15 L34.3 14.95 33.4 14.4 31.8 15.0 32.7 17.15 M35.1 19.55 L36.0 20.0 Q36.5 18.5 35.6 16.95 L34.8 16.4 33.85 19.4 34.6 20.55 35.1 19.55 M21.25 31.35 Q17.7 30.3 15.15 27.3 L14.95 27.05 Q12.75 24.3 11.9 21.05 11.5 19.55 11.4 17.95 11.7 14.3 12.5 10.65 L12.55 10.55 Q13.15 9.05 14.1 7.7 L14.3 7.45 14.95 6.8 Q21.3 2.65 28.25 4.75 L30.6 5.6 Q35.85 8.05 38.6 13.25 41.1 18.1 39.65 23.25 L38.25 27.05 Q37.15 29.25 35.6 31.25 L34.25 33.05 34.0 33.05 32.8 33.05 32.2 33.05 32.8 31.8 25.25 32.0 25.5 32.9 25.6 33.05 25.05 33.05 24.05 33.05 23.85 32.6 23.6 31.8 21.25 31.35" fill="#4b4b4b" fill-rule="evenodd" stroke="none"/>
      <path d="M28.75 12.0 L28.8 12.0 26.0 15.2 Q25.1 18.45 26.1 21.05 26.95 23.25 29.2 25.0 L32.2 25.7 32.3 25.7 Q34.45 25.05 36.6 24.0 L37.75 25.05 36.85 27.05 Q34.75 30.4 30.1 30.7 L26.5 30.75 24.6 30.45 Q19.45 30.65 16.65 27.05 L15.25 24.8 15.0 24.2 13.75 22.25 13.75 22.15 13.75 22.0 Q13.45 21.65 13.55 21.25 L13.55 21.1 Q13.2 20.05 13.15 18.95 12.75 17.75 12.85 16.6 12.5 13.85 13.7 11.2 L14.25 10.2 14.2 10.2 14.3 10.1 Q15.1 8.85 16.2 7.9 20.0 4.45 24.45 4.65 26.3 4.7 28.25 5.4 35.05 7.95 38.0 14.6 L37.4 14.6 Q34.3 12.1 30.9 10.65 L28.75 12.0 M35.1 19.55 L34.6 20.55 33.85 19.4 34.8 16.4 35.6 16.95 Q36.5 18.5 36.0 20.0 L35.1 19.55 M32.7 17.15 L31.8 15.0 33.4 14.4 34.3 14.95 32.7 17.15" fill="#ffffff" fill-rule="evenodd" stroke="none"/>
      <path d="M25.05 33.05 L25.6 33.05 25.5 32.9 25.25 32.0 32.8 31.8 32.2 33.05 32.8 33.05 Q32.45 35.1 31.4 37.0 L30.75 38.05 Q27.45 38.95 26.0 35.4 L25.05 33.05 M28.45 73.4 L27.5 72.95 28.55 72.25 28.45 73.4 M28.05 81.85 L29.1 80.9 Q30.6 78.95 30.9 77.4 33.6 79.95 37.2 81.05 34.6 84.35 37.6 89.5 31.25 86.9 28.05 81.85 M35.05 79.1 Q30.9 77.5 30.65 73.4 30.6 72.5 30.85 71.7 31.9 68.3 31.65 64.95 31.9 64.5 32.4 64.5 L34.1 64.95 Q34.95 65.1 35.55 64.65 L35.85 65.0 35.9 65.75 Q33.5 71.35 35.05 79.1" fill="#cccccc" fill-rule="evenodd" stroke="none"/>
      <path d="M28.25 14.65 L29.3 13.3 Q30.3 12.45 31.3 12.85 L31.8 13.0 Q28.6 14.85 28.85 18.4 29.15 22.75 33.35 23.75 33.15 24.35 31.6 24.5 28.5 24.1 27.55 21.05 L27.3 20.05 Q26.75 17.0 28.25 14.65" fill="#0099ff" fill-rule="evenodd" stroke="none"/>
      <path d="M21.25 31.35 L23.6 31.8 23.85 32.6 24.05 33.05 25.05 33.05 26.0 35.4 Q27.45 38.95 30.75 38.05 L31.4 37.0 Q32.45 35.1 32.8 33.05 L34.0 33.05 Q33.55 34.4 33.75 36.05 L32.75 37.05 Q34.6 58.95 41.95 79.65 47.2 82.15 47.5 88.2 47.6 90.85 45.0 91.2 37.5 92.4 31.7 87.35 26.95 83.35 24.05 77.9 22.95 75.85 23.55 73.65 26.3 71.65 29.55 71.05 30.9 55.4 28.3 39.95 24.8 37.75 23.8 33.9 L23.35 32.05 21.25 31.35 M29.55 39.85 Q30.9 48.85 31.2 57.9 31.3 60.55 32.0 62.95 L35.15 63.25 Q33.85 51.35 31.35 39.45 L29.95 40.1 29.55 39.85 M27.5 72.95 L25.15 74.45 25.4 75.5 Q26.2 79.05 28.05 81.85 31.25 86.9 37.6 89.5 L46.05 89.15 Q47.25 83.4 42.35 80.65 L42.6 81.6 41.95 82.05 37.2 81.05 Q33.6 79.95 30.9 77.4 L29.6 76.1 28.35 74.75 28.45 73.4 28.55 72.25 27.5 72.95 M35.9 65.75 L35.85 65.0 35.55 64.65 Q34.95 65.1 34.1 64.95 L32.4 64.5 Q31.9 64.5 31.65 64.95 31.9 68.3 30.85 71.7 30.6 72.5 30.65 73.4 30.9 77.5 35.05 79.1 37.0 80.4 39.3 80.5 L41.15 80.65 35.9 65.75" fill="#000000" fill-rule="evenodd" stroke="none"/>
      <path d="M29.55 39.85 L29.95 40.1 31.35 39.45 Q33.85 51.35 35.15 63.25 L32.0 62.95 Q31.3 60.55 31.2 57.9 30.9 48.85 29.55 39.85" fill="#deddcc" fill-rule="evenodd" stroke="none"/>
      <path d="M27.5 72.95 L28.45 73.4 28.35 74.75 29.6 76.1 30.9 77.4 Q30.6 78.95 29.1 80.9 L28.05 81.85 Q26.2 79.05 25.4 75.5 L25.15 74.45 27.5 72.95" fill="#e7e7e7" fill-rule="evenodd" stroke="none"/>
    </g>
    <g id="shape4" transform="matrix(1.0, 0.0, 0.0, 1.0, 0.0, 0.0)">
      <path d="M25.25 8.95 Q24.55 6.7 24.45 4.65 26.3 4.7 28.25 5.4 35.05 7.95 38.0 14.6 L37.4 14.6 Q33.15 11.15 28.25 9.65 L25.25 8.95 M26.85 30.75 L27.3 30.15 28.95 28.85 31.85 27.05 32.2 26.85 32.3 25.7 Q34.45 25.05 36.6 24.0 L37.75 25.05 36.85 27.05 35.8 28.45 35.75 28.4 35.65 28.55 34.15 29.65 32.7 30.0 Q29.8 30.95 26.85 30.75" fill="#a3a3a3" fill-rule="evenodd" stroke="none"/>
      <path d="M25.25 8.95 L28.25 9.65 Q33.15 11.15 37.4 14.6 L38.0 14.6 Q35.05 7.95 28.25 5.4 26.3 4.7 24.45 4.65 20.0 4.45 16.2 7.9 L17.95 8.65 25.25 8.95 M21.25 31.35 Q19.1 30.65 17.15 29.25 L16.2 28.4 15.15 27.3 14.95 27.05 Q12.75 24.3 11.9 21.05 11.25 18.6 11.4 15.8 6.6 15.6 3.3 13.1 1.6 11.8 0.3 9.9 L0.4 9.2 0.0 8.8 0.5 8.85 Q1.75 10.8 3.3 11.95 5.9 13.8 9.45 13.35 L11.0 12.8 11.55 12.45 11.8 12.2 11.25 12.05 Q5.6 10.55 3.3 5.45 L2.4 2.8 2.5 2.4 2.55 2.15 2.55 2.4 3.4 2.6 Q5.6 7.35 9.7 10.0 10.9 10.75 12.45 10.5 L13.4 8.0 10.8 4.2 10.6 0.4 11.0 0.0 Q11.85 4.0 14.6 7.0 21.15 2.6 28.25 4.75 L30.6 5.6 Q35.85 8.05 38.6 13.25 41.1 18.1 39.65 23.25 L38.25 27.05 38.1 27.35 37.15 28.35 35.2 30.3 Q30.6 33.35 25.05 32.3 L23.6 31.9 21.25 31.35 M27.75 11.55 L27.65 11.5 Q25.45 10.75 23.05 10.35 L22.6 10.35 20.45 10.1 Q18.0 10.0 15.8 11.15 13.95 12.15 13.75 13.8 11.75 17.15 14.05 20.95 L14.1 21.05 15.5 22.4 Q21.85 25.95 29.1 25.05 L29.65 25.0 Q34.15 24.7 37.1 21.4 39.45 18.8 36.9 16.65 L34.55 14.9 Q31.8 12.35 27.75 11.55 M14.2 10.2 L15.6 9.8 15.0 9.2 14.2 10.2 M32.3 25.7 Q23.5 28.2 14.8 23.8 L15.25 24.8 16.55 26.95 Q20.6 31.2 26.35 31.2 L26.85 30.75 Q29.8 30.95 32.7 30.0 L34.15 29.65 35.65 28.55 35.75 28.4 35.8 28.45 36.85 27.05 37.75 25.05 36.6 24.0 Q34.45 25.05 32.3 25.7" fill="#4b4b4b" fill-rule="evenodd" stroke="none"/>
      <path d="M24.45 4.65 Q24.55 6.7 25.25 8.95 L17.95 8.65 16.2 7.9 Q20.0 4.45 24.45 4.65 M26.85 30.75 L26.35 31.2 Q20.6 31.2 16.55 26.95 L15.25 24.8 14.8 23.8 Q23.5 28.2 32.3 25.7 L32.2 26.85 31.85 27.05 28.95 28.85 27.3 30.15 26.85 30.75 M14.2 10.2 L15.0 9.2 15.6 9.8 14.2 10.2" fill="#cccccc" fill-rule="evenodd" stroke="none"/>
      <path d="M21.25 31.35 L23.6 31.9 22.3 31.75 21.25 31.35" fill="#000000" fill-rule="evenodd" stroke="none"/>
    </g>
    <g id="sprite2" transform="matrix(1.0, 0.0, 0.0, 1.0, 0.0, 0.0)">
      <use height="37.2" transform="matrix(1.0, 0.0, 0.0, 1.0, 9.7, 92.05)" width="59.65" xlink:href="#sprite3"/>
      <use height="99.2" transform="matrix(1.0, 0.0, 0.0, 1.0, 0.0, 0.0)" width="39.5" xlink:href="#sprite4"/>
    </g>
    <g id="sprite3" transform="matrix(1.0, 0.0, 0.0, 1.0, 0.0, 0.0)">
      <use height="37.2" transform="matrix(1.0, 0.0, 0.0, 1.0, 0.0, 0.0)" width="59.65" xlink:href="#shape5"/>
    </g>
    <g id="shape5" transform="matrix(1.0, 0.0, 0.0, 1.0, 0.0, 0.0)">
      <path d="M14.75 23.75 Q17.55 24.8 20.0 25.0 L20.95 25.2 27.0 26.2 37.05 26.5 37.15 26.5 37.5 26.5 37.5 26.45 39.0 26.3 41.35 25.95 43.5 25.45 Q48.3 24.2 52.2 21.65 52.9 21.25 53.25 20.45 L53.6 18.85 Q52.85 15.45 50.55 12.9 48.65 10.75 45.4 9.0 L43.8 8.2 42.3 7.5 39.3 6.25 38.1 5.8 38.1 5.75 36.7 5.2 33.6 3.75 33.4 3.65 33.3 3.65 33.2 3.6 33.1 3.6 33.05 3.55 32.5 3.4 31.8 3.2 31.75 3.2 29.9 2.85 27.35 2.25 27.3 2.25 20.55 1.1 18.05 1.1 17.55 1.15 17.35 1.15 17.05 1.2 16.3 1.3 16.2 1.3 15.25 1.25 15.1 1.35 Q14.3 1.55 13.6 1.9 L13.4 2.05 13.1 2.1 13.1 2.2 Q12.35 2.6 11.8 3.2 L11.3 3.7 Q7.0 7.6 5.2 14.15 4.95 16.25 6.2 19.45 L6.3 19.5 8.5 20.75 12.85 23.0 14.75 23.75 M8.9 30.55 L12.85 31.8 Q23.5 35.15 34.35 35.85 40.7 36.1 46.55 34.35 L50.45 32.95 Q52.7 31.95 54.65 30.6 56.15 29.6 57.15 28.1 58.05 26.75 58.2 25.05 58.6 21.25 56.8 17.3 L56.25 17.1 55.8 17.35 54.0 16.5 Q54.75 18.4 54.05 20.2 52.85 23.25 49.8 24.5 46.45 25.8 42.9 26.65 L35.6 27.65 Q26.4 28.25 16.9 25.9 L14.0 24.85 Q10.45 23.4 7.3 21.15 6.25 20.4 5.7 19.45 4.45 17.05 3.6 14.5 2.05 15.9 1.75 18.0 1.3 21.5 1.45 24.95 1.55 26.85 3.4 28.0 L7.45 29.95 8.9 30.55 M53.9 15.4 L55.25 15.75 56.6 16.1 Q58.7 18.45 59.35 21.8 60.0 24.9 59.2 28.05 55.4 33.05 48.6 35.15 L42.3 36.5 35.8 37.2 Q16.7 36.1 4.0 29.95 L1.6 28.0 Q0.45 26.6 0.4 25.25 -0.25 20.6 0.15 18.1 0.8 14.05 4.0 12.75 5.8 8.65 6.9 6.85 8.55 4.05 10.65 2.25 L11.2 2.1 11.55 1.9 Q13.85 0.7 16.45 0.25 19.15 -0.2 21.9 0.25 L25.3 0.75 25.9 0.8 31.4 2.15 31.6 2.2 35.25 3.6 Q39.05 5.0 41.25 6.1 48.1 9.15 52.2 13.45 52.4 14.85 53.9 15.4" fill="#000000" fill-rule="evenodd" stroke="none"/>
      <path d="M18.05 1.1 L20.55 1.1 27.3 2.25 27.35 2.25 29.9 2.85 31.75 3.2 31.8 3.2 32.5 3.4 33.05 3.55 33.1 3.6 33.2 3.6 33.3 3.65 33.4 3.65 33.6 3.75 36.7 5.2 38.1 5.75 38.1 5.8 39.3 6.25 42.3 7.5 43.8 8.2 45.4 9.0 Q48.65 10.75 50.55 12.9 52.85 15.45 53.6 18.85 L53.25 20.45 Q52.9 21.25 52.2 21.65 48.3 24.2 43.5 25.45 L41.35 25.95 39.0 26.3 37.5 26.45 37.5 26.5 37.15 26.5 37.05 26.5 27.0 26.2 20.95 25.2 20.0 25.0 Q17.55 24.8 14.75 23.75 20.35 22.1 26.15 21.4 28.35 19.35 30.0 16.9 L29.85 15.45 29.4 13.55 29.0 13.0 Q27.2 11.3 25.85 9.2 24.35 6.9 22.05 5.45 L19.3 3.4 17.4 1.9 Q16.85 1.85 16.4 1.5 L16.3 1.45 Q16.6 1.15 17.05 1.25 L17.35 1.25 17.45 1.3 17.55 1.2 17.95 1.15 18.05 1.1" fill="#d42a7b" fill-rule="evenodd" stroke="none"/>
      <path d="M14.0 24.85 L16.9 25.9 Q26.4 28.25 35.6 27.65 L42.9 26.65 Q46.45 25.8 49.8 24.5 52.85 23.25 54.05 20.2 54.75 18.4 54.0 16.5 L55.8 17.35 56.25 17.1 56.8 17.3 Q58.6 21.25 58.2 25.05 58.05 26.75 57.15 28.1 56.15 29.6 54.65 30.6 52.7 31.95 50.45 32.95 L46.55 34.35 Q40.7 36.1 34.35 35.85 23.5 35.15 12.85 31.8 L8.9 30.55 9.45 29.95 11.05 28.1 Q12.55 26.1 14.0 24.85" fill="#734d5c" fill-rule="evenodd" stroke="none"/>
      <path d="M14.75 23.75 L12.85 23.0 8.5 20.75 9.2 20.0 Q9.95 19.15 9.7 17.9 9.05 14.75 9.45 11.8 L10.15 9.8 11.25 6.95 Q12.85 3.75 15.8 1.7 L15.85 1.7 Q16.1 1.7 16.15 1.55 L16.1 1.55 16.15 1.5 16.15 1.45 16.15 1.35 16.3 1.35 16.3 1.3 17.05 1.2 17.35 1.15 17.55 1.15 18.05 1.1 17.95 1.15 17.55 1.2 17.45 1.3 17.35 1.25 17.05 1.25 Q16.6 1.15 16.3 1.45 L16.4 1.5 Q16.85 1.85 17.4 1.9 L19.3 3.4 22.05 5.45 Q24.35 6.9 25.85 9.2 27.2 11.3 29.0 13.0 L29.4 13.55 29.85 15.45 30.0 16.9 Q28.35 19.35 26.15 21.4 20.35 22.1 14.75 23.75 M13.1 2.2 L13.1 2.1 13.4 2.05 13.1 2.2" fill="#ff3399" fill-rule="evenodd" stroke="none"/>
      <path d="M8.5 20.75 L6.3 19.5 6.2 19.45 Q4.95 16.25 5.2 14.15 7.0 7.6 11.3 3.7 L11.8 3.2 Q12.35 2.6 13.1 2.2 L13.4 2.05 13.6 1.9 Q14.3 1.55 15.1 1.35 L15.25 1.25 16.2 1.3 16.3 1.3 16.3 1.35 16.15 1.35 16.15 1.45 16.15 1.5 16.1 1.55 16.15 1.55 Q16.1 1.7 15.85 1.7 L15.8 1.7 Q12.85 3.75 11.25 6.95 L10.15 9.8 9.45 11.8 Q9.05 14.75 9.7 17.9 9.95 19.15 9.2 20.0 L8.5 20.75" fill="#ff7aba" fill-rule="evenodd" stroke="none"/>
      <path d="M8.9 30.55 L7.45 29.95 3.4 28.0 Q1.55 26.85 1.45 24.95 1.3 21.5 1.75 18.0 2.05 15.9 3.6 14.5 4.45 17.05 5.7 19.45 6.25 20.4 7.3 21.15 10.45 23.4 14.0 24.85 12.55 26.1 11.05 28.1 L9.45 29.95 8.9 30.55" fill="#8f5f74" fill-rule="evenodd" stroke="none"/>
    </g>
    <g id="sprite4" transform="matrix(1.0, 0.0, 0.0, 1.0, 0.0, 0.0)">
      <use height="99.2" transform="matrix(1.0, 0.0, 0.0, 1.0, 0.0, 0.0)" width="39.5" xlink:href="#shape6"/>
    </g>
    <g id="shape6" transform="matrix(1.0, 0.0, 0.0, 1.0, 0.0, 0.0)">
      <path d="M9.8 1.9 L9.85 1.85 10.55 2.55 9.8 3.7 Q15.65 28.05 22.65 52.1 26.5 65.45 31.95 78.2 L32.1 78.5 32.75 79.9 34.05 84.1 34.25 84.5 35.35 86.65 35.45 86.8 36.4 88.35 38.75 92.85 38.9 93.3 39.25 93.45 39.5 93.9 39.45 94.15 Q39.4 94.4 39.5 94.65 L39.3 94.55 Q39.4 95.45 38.6 96.3 L37.3 97.7 36.95 97.9 36.9 97.95 36.6 98.05 35.75 98.4 35.75 98.45 33.45 99.05 29.95 99.15 Q27.0 98.9 24.65 97.65 L22.5 96.25 22.35 96.05 21.65 95.15 21.65 94.95 21.65 94.8 21.55 94.7 21.25 94.15 21.1 94.0 20.85 93.85 20.9 93.8 20.85 91.2 20.9 90.9 20.95 90.35 Q21.0 89.5 21.3 88.85 L21.7 87.2 21.85 86.55 21.25 86.45 21.15 79.9 21.15 79.85 Q20.7 71.15 18.6 62.7 11.65 34.6 2.1 5.15 L0.05 4.5 0.0 4.2 Q-0.1 3.35 0.35 2.65 L0.75 2.05 Q3.25 -0.85 6.85 0.4 L9.35 1.75 9.8 1.9 M7.65 2.35 Q4.45 0.35 1.95 2.6 L3.5 5.45 6.05 14.15 Q7.65 11.95 11.2 13.95 L8.4 3.85 8.6 3.1 7.65 2.35 M1.7 2.8 L2.15 3.6 Q2.3 3.55 1.9 2.65 L1.7 2.8 M22.75 80.05 L22.95 82.0 23.1 82.15 23.45 82.45 23.75 82.7 23.8 82.7 Q25.55 83.5 29.3 83.6 L30.3 83.25 30.3 83.2 31.1 82.3 Q31.9 81.4 27.75 72.75 L26.6 69.5 21.8 70.7 22.75 79.9 21.7 79.9 22.75 80.05 M26.6 68.1 L23.4 58.7 19.85 58.85 19.0 59.1 21.4 69.3 26.6 68.1 M19.4 44.3 L16.35 44.35 15.4 44.7 Q16.25 51.6 18.95 57.75 L23.0 57.1 19.4 44.3 M15.0 27.9 Q13.1 26.3 10.15 28.05 L15.0 43.5 16.15 43.05 18.05 42.65 19.2 43.1 15.0 27.9 M12.1 16.4 L11.65 15.3 Q9.85 13.3 6.8 15.45 L9.95 26.95 Q12.45 25.0 14.3 25.95 12.75 21.3 12.1 16.4 M31.6 97.8 L35.45 96.95 Q37.8 95.9 37.7 93.25 L37.55 92.7 36.55 90.4 35.3 88.4 34.8 87.55 32.4 84.3 31.5 84.7 31.25 84.75 29.3 85.25 28.9 85.3 27.85 85.35 Q25.55 85.3 23.65 83.95 23.3 84.2 23.3 84.95 L23.3 85.45 23.3 85.5 23.1 86.7 22.95 87.3 22.25 89.5 22.0 90.5 21.95 91.05 22.1 94.4 Q24.05 96.35 26.7 97.15 29.2 97.95 31.6 97.8" fill="#000000" fill-rule="evenodd" stroke="none"/>
      <path d="M1.7 2.8 L1.9 2.65 Q2.3 3.55 2.15 3.6 L1.7 2.8 M7.65 2.35 L8.6 3.1 8.4 3.85 11.2 13.95 Q7.65 11.95 6.05 14.15 L3.5 5.45 1.95 2.6 Q4.45 0.35 7.65 2.35 M12.1 16.4 Q12.75 21.3 14.3 25.95 12.45 25.0 9.95 26.95 L6.8 15.45 Q9.85 13.3 11.65 15.3 L12.1 16.4 M15.0 27.9 L19.2 43.1 18.05 42.65 16.15 43.05 15.0 43.5 10.15 28.05 Q13.1 26.3 15.0 27.9 M19.4 44.3 L23.0 57.1 18.95 57.75 Q16.25 51.6 15.4 44.7 L16.35 44.35 19.4 44.3 M26.6 68.1 L21.4 69.3 19.0 59.1 19.85 58.85 23.4 58.7 26.6 68.1 M22.75 79.9 L21.8 70.7 26.6 69.5 27.75 72.75 Q31.9 81.4 31.1 82.3 L30.3 83.2 30.3 83.25 29.3 83.6 Q25.55 83.5 23.8 82.7 L23.75 82.7 23.45 82.45 23.1 82.15 22.95 82.0 22.75 80.05 23.3 81.7 22.75 79.9" fill="#deddcc" fill-rule="evenodd" stroke="none"/>
      <path d="M27.85 85.35 L28.9 85.3 29.3 85.25 31.25 84.75 31.5 84.7 32.4 84.3 34.8 87.55 35.3 88.4 36.55 90.4 37.55 92.7 37.7 93.25 Q37.8 95.9 35.45 96.95 L31.6 97.8 Q29.2 93.4 29.0 87.6 L28.8 87.25 27.85 85.35" fill="#734d5c" fill-rule="evenodd" stroke="none"/>
      <path d="M31.6 97.8 Q29.2 97.95 26.7 97.15 24.05 96.35 22.1 94.4 L21.95 91.05 22.0 90.5 22.25 89.5 22.95 87.3 23.1 86.7 23.3 85.5 23.3 85.45 23.3 84.95 Q23.3 84.2 23.65 83.95 25.55 85.3 27.85 85.35 L28.8 87.25 29.0 87.6 Q29.2 93.4 31.6 97.8" fill="#8f5f74" fill-rule="evenodd" stroke="none"/>
    </g>
    <g id="sprite5" transform="matrix(1.0, 0.0, 0.0, 1.0, 0.0, 0.0)">
      <use height="155.85" transform="matrix(1.0, 0.0, 0.0, 1.0, 0.0, 0.0)" width="121.65" xlink:href="#shape7"/>
    </g>
    <g id="shape7" transform="matrix(1.0, 0.0, 0.0, 1.0, 0.0, 0.0)">
      <path d="M97.0 22.95 L97.2 22.95 Q101.75 28.45 99.25 35.2 97.65 39.45 94.95 43.05 88.0 52.5 77.75 58.45 L76.1 59.4 Q60.5 51.45 74.4 36.85 75.3 32.85 75.5 29.35 75.7 26.1 75.35 23.35 L77.45 23.35 77.45 20.55 77.3 20.3 75.3 17.85 75.4 17.8 Q75.6 16.65 74.65 15.75 L74.05 15.2 Q72.3 12.0 69.55 9.75 L65.6 6.1 64.15 4.3 Q63.15 3.0 62.65 1.8 65.7 1.7 68.8 2.5 73.4 3.65 77.45 5.65 L77.45 8.45 77.45 9.75 Q78.95 10.4 80.4 11.2 84.6 13.35 88.5 16.3 L91.65 18.75 97.0 22.95 M94.8 41.3 Q95.2 40.85 95.2 40.25 95.2 39.65 94.8 39.2 94.45 38.75 93.9 38.75 93.35 38.75 92.95 39.2 92.6 39.65 92.6 40.25 92.6 40.85 92.95 41.3 93.35 41.75 93.9 41.75 94.45 41.75 94.8 41.3 M89.7 48.45 L90.2 47.35 Q90.15 46.8 89.75 46.5 L89.3 46.25 Q88.4 45.9 88.0 46.75 87.85 47.85 88.6 48.75 89.3 49.05 89.7 48.45 M97.95 34.3 L99.0 33.35 98.6 31.35 96.6 32.35 Q96.7 34.0 97.95 34.3 M96.8 138.95 L98.45 141.0 97.35 142.0 97.3 142.0 Q91.6 146.9 84.9 150.25 L84.55 150.4 84.4 150.5 92.05 145.9 84.3 147.9 84.05 147.55 83.55 147.25 Q78.3 148.05 73.3 146.45 59.5 141.85 45.0 141.7 38.55 141.65 33.15 144.4 33.0 143.9 32.05 143.5 31.4 143.4 30.95 143.85 L30.85 144.25 31.2 145.5 29.5 146.65 26.35 145.25 Q20.95 142.35 17.0 137.25 L16.0 135.95 Q13.45 132.5 11.5 128.65 L8.65 122.5 Q28.6 139.15 58.9 124.85 72.9 112.35 72.35 107.2 L71.8 102.05 73.85 100.7 Q78.05 104.25 82.05 108.15 84.8 110.95 86.8 114.25 85.3 120.35 79.65 126.1 L93.4 127.65 Q95.5 133.1 96.8 138.95 M82.2 115.55 L83.2 115.4 84.0 114.75 83.9 113.85 Q83.7 113.35 83.2 112.95 82.6 112.95 82.1 113.3 81.65 113.6 81.4 114.15 L81.7 114.9 82.2 115.55" fill="#b337aa" fill-rule="evenodd" stroke="none"/>
      <path d="M97.2 22.95 L97.0 22.95 97.2 22.75 97.2 22.95 M102.2 30.45 L101.55 30.85 101.6 29.55 102.2 30.45" fill="#ffffff" fill-rule="evenodd" stroke="none"/>
      <path d="M97.0 22.95 L91.65 18.75 88.5 16.3 Q84.6 13.35 80.4 11.2 78.95 10.4 77.45 9.75 L77.45 8.45 78.55 8.9 79.7 9.35 Q86.55 12.3 92.35 17.05 L94.25 18.7 Q97.3 21.5 99.6 24.9 107.25 36.2 111.55 49.05 113.9 56.1 115.35 63.35 L116.25 68.35 116.45 69.85 116.45 78.35 116.45 87.35 115.95 87.35 Q116.2 82.85 116.05 78.35 115.9 73.35 115.2 68.35 L114.75 65.45 114.4 63.35 Q111.15 46.2 102.6 31.1 L102.2 30.45 101.6 29.55 101.55 30.85 101.4 31.85 101.2 32.65 101.4 33.15 Q95.8 49.75 80.6 58.75 L80.1 58.75 Q75.95 61.4 71.5 63.35 66.65 65.45 61.45 66.7 L61.05 73.95 61.4 74.35 Q60.8 76.3 61.05 78.35 61.15 79.15 61.4 79.95 L61.0 80.5 62.4 87.35 60.65 87.35 60.0 84.35 60.4 83.95 59.95 83.4 59.75 67.0 58.8 66.75 Q59.35 65.65 60.4 65.35 L67.3 63.35 Q71.85 61.7 76.1 59.4 L77.75 58.45 Q88.0 52.5 94.95 43.05 97.65 39.45 99.25 35.2 101.75 28.45 97.2 22.95 L97.2 22.75 97.0 22.95 M77.45 5.65 Q73.4 3.65 68.8 2.5 65.7 1.7 62.65 1.8 L61.05 1.85 56.7 2.7 56.25 2.8 Q54.1 3.5 52.0 4.35 L51.8 4.45 49.7 5.3 47.4 6.45 43.7 8.45 Q40.2 10.55 37.0 13.15 43.85 12.95 50.2 15.6 55.3 17.8 60.55 18.75 66.85 20.05 71.6 16.15 L70.25 14.9 71.0 14.15 72.05 14.5 73.1 14.85 73.6 14.95 74.05 15.2 74.65 15.75 Q75.6 16.65 75.4 17.8 L75.3 17.85 73.6 18.55 72.8 17.35 71.9 18.0 Q71.1 18.6 70.1 18.85 64.55 20.8 58.6 19.9 54.2 19.3 50.35 17.4 46.75 15.6 42.85 15.0 L39.3 15.25 36.45 15.8 Q33.9 16.45 31.75 17.55 L28.75 19.45 Q26.6 21.05 24.9 23.25 L24.85 23.35 25.25 23.35 25.15 23.5 Q16.8 33.25 11.25 45.25 7.15 54.15 4.75 63.35 L3.6 68.35 Q2.7 72.7 2.2 77.15 L2.8 77.6 3.35 87.35 2.4 87.35 Q2.35 96.95 4.05 106.55 5.3 113.65 7.8 120.35 L8.65 122.5 11.5 128.65 Q13.45 132.5 16.0 135.95 L17.0 137.25 Q20.95 142.35 26.35 145.25 L29.5 146.65 Q31.3 147.95 33.2 148.95 L33.2 148.85 34.25 147.6 Q34.8 147.1 35.5 147.15 L37.8 147.6 38.85 147.7 39.2 147.85 Q54.45 151.4 70.75 149.8 L76.35 149.35 77.75 149.6 79.7 149.5 Q81.9 149.75 81.85 151.45 L84.4 150.5 84.55 150.4 84.9 150.25 Q91.6 146.9 97.3 142.0 L97.35 142.0 98.45 141.0 Q107.45 133.4 112.25 122.7 L115.3 115.4 Q122.35 97.3 120.75 78.35 L121.45 78.35 Q121.95 86.2 121.15 94.2 119.05 115.2 107.45 132.55 L105.8 134.95 105.2 135.15 Q92.35 150.75 72.45 154.7 L61.25 155.75 59.15 155.85 58.65 155.7 56.85 155.55 56.8 155.55 Q46.7 154.5 37.1 151.7 L33.4 150.35 Q22.9 145.75 15.55 137.0 L15.4 136.85 15.4 136.7 15.6 136.55 Q9.35 129.2 5.95 120.35 4.65 116.9 3.75 113.2 L2.3 104.45 2.2 104.55 2.0 102.7 0.0 90.95 1.55 97.8 Q1.25 92.55 1.5 87.35 L1.15 87.35 Q0.5 77.65 2.15 68.35 L3.25 63.35 Q5.05 56.05 8.3 49.05 L13.25 38.75 Q17.45 30.4 23.4 23.35 L23.25 23.35 24.1 22.4 25.7 20.7 Q27.85 18.35 30.25 16.15 L31.85 14.65 Q34.05 12.7 36.45 11.1 37.15 10.6 37.9 10.15 L38.8 9.35 38.9 9.55 40.45 8.7 Q43.75 6.3 47.3 4.6 53.5 1.6 60.5 0.5 L61.65 0.3 64.65 0.0 Q71.5 0.75 77.45 3.8 L77.45 5.65 M40.65 147.15 Q39.45 147.15 39.0 145.95 L39.1 145.3 39.2 144.9 Q39.85 144.45 40.5 144.5 42.15 145.5 40.75 147.1 L40.65 147.15 M49.9 145.35 L50.75 146.0 50.9 146.2 51.0 146.8 50.85 147.45 48.85 147.5 48.65 146.45 48.65 146.0 Q48.9 145.65 49.3 145.55 L49.9 145.35 M61.85 147.55 Q62.25 146.7 63.2 146.65 L63.2 146.6 Q64.35 147.3 64.0 148.7 L63.9 148.9 Q62.8 149.55 61.85 148.6 61.65 148.35 61.75 147.95 L61.85 147.55 M70.5 147.4 Q71.05 146.95 71.75 146.95 L71.8 146.9 Q72.15 147.05 72.4 147.35 L72.45 147.45 72.55 148.1 72.5 148.5 Q71.3 149.5 70.45 148.15 L70.4 147.7 70.5 147.4 M80.7 147.95 L81.0 147.8 81.2 147.75 Q81.9 147.65 82.35 148.15 L82.4 148.25 82.4 148.55 82.15 149.05 81.6 149.25 81.35 149.35 Q80.9 149.3 80.6 148.95 L80.55 148.85 80.5 148.45 80.7 147.95 M33.15 144.4 L33.15 144.45 Q33.2 145.0 32.35 145.6 L31.3 145.65 31.25 145.5 31.2 145.5 30.85 144.25 30.95 143.85 Q31.4 143.4 32.05 143.5 33.0 143.9 33.15 144.4 M37.55 148.4 L34.7 148.35 34.6 148.65 34.45 148.85 34.3 149.15 34.4 149.4 34.4 149.5 34.45 149.6 Q37.7 151.2 41.25 152.05 50.3 154.15 59.55 154.35 70.5 155.1 80.85 151.75 L80.75 151.6 80.5 151.05 Q79.75 150.6 78.95 150.4 L78.85 150.4 78.8 150.4 78.35 150.3 75.35 150.8 58.65 151.55 Q48.65 151.25 39.05 149.1 L38.4 148.6 37.55 148.4" fill="#4d1541" fill-rule="evenodd" stroke="none"/>
      <path d="M97.95 34.3 Q96.7 34.0 96.6 32.35 L98.6 31.35 99.0 33.35 97.95 34.3 M89.7 48.45 Q89.3 49.05 88.6 48.75 87.85 47.85 88.0 46.75 88.4 45.9 89.3 46.25 L89.75 46.5 Q90.15 46.8 90.2 47.35 L89.7 48.45 M94.8 41.3 Q94.45 41.75 93.9 41.75 93.35 41.75 92.95 41.3 92.6 40.85 92.6 40.25 92.6 39.65 92.95 39.2 93.35 38.75 93.9 38.75 94.45 38.75 94.8 39.2 95.2 39.65 95.2 40.25 95.2 40.85 94.8 41.3 M56.85 87.35 Q66.05 92.45 73.9 99.3 L74.4 99.75 Q80.55 105.2 85.8 111.7 95.45 123.75 96.8 138.95 95.5 133.1 93.4 127.65 90.75 120.65 86.8 114.25 84.8 110.95 82.05 108.15 78.05 104.25 73.85 100.7 L73.6 100.5 73.0 100.05 Q67.95 95.9 62.55 92.25 58.4 89.45 53.8 87.35 L56.85 87.35 M82.2 115.55 L81.7 114.9 81.4 114.15 Q81.65 113.6 82.1 113.3 82.6 112.95 83.2 112.95 83.7 113.35 83.9 113.85 L84.0 114.75 83.2 115.4 82.2 115.55" fill="#000000" fill-rule="evenodd" stroke="none"/>
      <path d="M62.65 1.8 Q63.15 3.0 64.15 4.3 L65.6 6.1 69.55 9.75 Q72.3 12.0 74.05 15.2 L73.6 14.95 73.1 14.85 72.05 14.5 71.0 14.15 70.25 14.9 71.6 16.15 Q66.85 20.05 60.55 18.75 55.3 17.8 50.2 15.6 43.85 12.95 37.0 13.15 40.2 10.55 43.7 8.45 L47.4 6.45 Q47.9 8.3 50.2 8.4 L53.25 8.35 Q60.25 7.6 61.05 1.85 L62.65 1.8 M75.3 17.85 L77.3 20.3 77.45 20.55 77.45 23.35 75.35 23.35 Q75.7 26.1 75.5 29.35 75.3 32.85 74.4 36.85 60.5 51.45 76.1 59.4 71.85 61.7 67.3 63.35 L60.4 65.35 Q59.35 65.65 58.8 66.75 L59.75 67.0 59.95 83.4 60.4 83.95 60.0 84.35 60.65 87.35 56.85 87.35 53.8 87.35 Q58.4 89.45 62.55 92.25 67.95 95.9 73.0 100.05 L73.6 100.5 73.85 100.7 71.8 102.05 72.35 107.2 Q72.9 112.35 58.9 124.85 28.6 139.15 8.65 122.5 L7.8 120.35 Q5.3 113.65 4.05 106.55 2.35 96.95 2.4 87.35 L3.35 87.35 2.8 77.6 2.2 77.15 Q2.7 72.7 3.6 68.35 L4.75 63.35 Q7.15 54.15 11.25 45.25 16.8 33.25 25.15 23.5 L25.25 23.35 24.85 23.35 24.9 23.25 Q26.6 21.05 28.75 19.45 L31.75 17.55 Q33.9 16.45 36.45 15.8 L39.3 15.25 42.85 15.0 Q46.75 15.6 50.35 17.4 54.2 19.3 58.6 19.9 64.55 20.8 70.1 18.85 71.1 18.6 71.9 18.0 L72.8 17.35 73.6 18.55 75.3 17.85 M102.6 31.1 L101.4 31.85 101.55 30.85 102.2 30.45 102.6 31.1 M73.9 99.3 L77.8 96.05 Q90.55 85.55 74.4 99.75 L73.9 99.3 M86.8 114.25 Q90.75 120.65 93.4 127.65 L79.65 126.1 Q85.3 120.35 86.8 114.25 M23.4 109.85 Q12.55 108.5 11.5 111.05 10.45 113.55 15.1 115.65 19.7 117.75 23.85 114.05 27.95 110.3 23.4 109.85" fill="#e045d5" fill-rule="evenodd" stroke="none"/>
      <path d="M116.45 78.35 L120.75 78.35 Q122.35 97.3 115.3 115.4 L112.25 122.7 Q107.45 133.4 98.45 141.0 L96.8 138.95 Q95.45 123.75 85.8 111.7 80.55 105.2 74.4 99.75 90.55 85.55 77.8 96.05 L73.9 99.3 Q66.05 92.45 56.85 87.35 L60.65 87.35 62.4 87.35 61.0 80.5 61.4 79.95 Q61.15 79.15 61.05 78.35 60.8 76.3 61.4 74.35 L61.05 73.95 61.45 66.7 Q66.65 65.45 71.5 63.35 75.95 61.4 80.1 58.75 L80.6 58.75 Q95.8 49.75 101.4 33.15 L101.2 32.65 101.4 31.85 102.6 31.1 Q111.15 46.2 114.4 63.35 L114.75 65.45 115.2 68.35 Q115.9 73.35 116.05 78.35 116.2 82.85 115.95 87.35 L116.45 87.35 116.45 78.35 M37.55 148.4 L38.4 148.6 39.05 149.1 Q48.65 151.25 58.65 151.55 L75.35 150.8 78.35 150.3 78.8 150.4 78.85 150.4 78.95 150.4 Q79.75 150.6 80.5 151.05 L80.75 151.6 80.85 151.75 Q70.5 155.1 59.55 154.35 50.3 154.15 41.25 152.05 37.7 151.2 34.45 149.6 L34.4 149.5 34.4 149.4 34.3 149.15 34.45 148.85 34.6 148.65 34.7 148.35 37.55 148.4" fill="#87367d" fill-rule="evenodd" stroke="none"/>
      <path d="M61.05 1.85 Q60.25 7.6 53.25 8.35 L50.2 8.4 Q47.9 8.3 47.4 6.45 L49.7 5.3 51.8 4.45 52.0 4.35 Q54.1 3.5 56.25 2.8 L56.7 2.7 61.05 1.85 M23.4 109.85 Q27.95 110.3 23.85 114.05 19.7 117.75 15.1 115.65 10.45 113.55 11.5 111.05 12.55 108.5 23.4 109.85" fill="#ff7df0" fill-rule="evenodd" stroke="none"/>
      <path d="M80.7 147.95 L80.5 148.45 80.55 148.85 80.6 148.95 Q80.9 149.3 81.35 149.35 L81.6 149.25 82.15 149.05 82.4 148.55 82.4 148.25 82.35 148.15 Q81.9 147.65 81.2 147.75 L81.0 147.8 80.7 147.95 M70.5 147.4 L70.4 147.7 70.45 148.15 Q71.3 149.5 72.5 148.5 L72.55 148.1 72.45 147.45 72.4 147.35 Q72.15 147.05 71.8 146.9 L71.75 146.95 Q71.05 146.95 70.5 147.4 M61.85 147.55 L61.75 147.95 Q61.65 148.35 61.85 148.6 62.8 149.55 63.9 148.9 L64.0 148.7 Q64.35 147.3 63.2 146.6 L63.2 146.65 Q62.25 146.7 61.85 147.55 M49.9 145.35 L49.3 145.55 Q48.9 145.65 48.65 146.0 L48.65 146.45 48.85 147.5 50.85 147.45 51.0 146.8 50.9 146.2 50.75 146.0 49.9 145.35 M40.65 147.15 L40.75 147.1 Q42.15 145.5 40.5 144.5 39.85 144.45 39.2 144.9 L39.1 145.3 39.0 145.95 Q39.45 147.15 40.65 147.15 M33.15 144.4 Q38.55 141.65 45.0 141.7 59.5 141.85 73.3 146.45 78.3 148.05 83.55 147.25 L84.05 147.55 84.3 147.9 92.05 145.9 84.4 150.5 81.85 151.45 Q81.9 149.75 79.7 149.5 L77.75 149.6 76.35 149.35 70.75 149.8 Q54.45 151.4 39.2 147.85 L38.85 147.7 37.8 147.6 35.5 147.15 Q34.8 147.1 34.25 147.6 L33.2 148.85 33.2 148.95 Q31.3 147.95 29.5 146.65 L31.2 145.5 31.25 145.5 31.3 145.65 32.35 145.6 Q33.2 145.0 33.15 144.45 L33.15 144.4" fill="#9c2b89" fill-rule="evenodd" stroke="none"/>
    </g>
    <g id="sprite6" transform="matrix(1.0, 0.0, 0.0, 1.0, 0.0, 0.0)">
      <use height="83.5" transform="matrix(1.0, 0.0, 0.0, 1.0, 0.0, 0.0)" width="95.25" xlink:href="#shape8"/>
    </g>
    <g id="shape8" transform="matrix(1.0, 0.0, 0.0, 1.0, 0.0, 0.0)">
      <path d="M89.0 48.25 L88.35 48.45 Q87.5 48.75 87.25 49.6 86.65 51.75 89.0 52.25 L89.8 51.9 Q90.85 51.3 90.85 50.1 L90.75 49.7 Q90.4 48.4 89.0 48.25 M81.45 34.25 Q81.35 35.4 82.1 36.25 84.5 37.5 86.85 36.25 L87.3 35.05 Q87.45 34.2 87.1 33.45 L86.85 33.05 Q85.65 31.5 84.0 30.8 L83.15 31.15 Q82.15 31.7 81.75 32.65 L81.45 34.25 M41.55 10.0 Q58.4 5.6 73.35 14.85 82.45 20.55 87.25 30.45 90.5 37.1 93.1 44.3 94.6 48.45 93.85 52.85 91.15 54.9 88.25 60.3 85.85 62.5 82.75 60.8 60.35 51.85 42.0 67.05 L34.75 66.8 Q23.85 63.6 18.5 53.8 17.6 50.85 17.65 47.8 17.75 36.65 23.5 26.8 27.95 17.2 40.7 10.25 L41.0 9.95 40.75 10.25 39.65 11.5 41.55 10.0 M71.0 15.3 Q70.25 19.65 73.0 21.85 75.75 24.0 78.1 28.45 80.4 32.9 82.6 27.95 84.75 23.0 71.0 15.3" fill="#6666ff" fill-rule="evenodd" stroke="none"/>
      <path d="M87.65 28.45 Q92.0 35.85 94.2 44.0 96.35 52.0 94.1 59.8 95.85 65.25 92.15 69.65 87.65 75.05 80.3 74.9 L73.65 74.25 66.75 74.7 Q62.6 74.95 58.7 76.2 49.4 79.3 40.2 82.7 36.8 83.95 33.1 83.3 21.6 81.9 12.5 74.6 4.15 67.9 1.45 57.55 -1.65 45.75 1.9 33.85 5.85 20.45 16.65 11.8 25.8 4.6 37.05 1.6 53.7 -2.75 69.15 4.7 75.3 7.75 78.85 13.65 L87.65 28.45 M93.85 52.85 Q94.6 48.45 93.1 44.3 90.5 37.1 87.25 30.45 82.45 20.55 73.35 14.85 58.4 5.6 41.55 10.0 L40.75 10.25 41.0 9.95 40.7 10.25 Q24.5 14.9 14.1 28.4 L13.65 28.0 13.9 29.0 12.3 30.3 Q11.55 30.95 11.05 31.85 4.75 42.9 8.2 55.0 10.25 62.1 15.95 66.6 L21.85 70.95 Q30.4 77.15 40.2 73.55 48.05 70.75 55.75 67.25 64.6 63.15 73.85 66.05 L79.0 67.2 Q86.8 67.95 91.65 61.4 94.45 57.65 93.85 52.85 M79.9 17.2 Q70.8 3.2 54.3 1.75 44.2 1.45 34.3 4.4 17.7 9.25 7.7 23.4 L7.7 24.0 Q-1.85 38.85 1.85 56.1 3.2 62.3 7.1 67.2 15.25 77.55 27.95 81.05 32.25 82.2 36.65 81.65 42.8 80.65 48.35 78.05 57.35 73.95 67.25 72.4 L72.65 72.1 77.15 72.85 Q82.7 73.55 87.75 71.3 90.9 69.9 92.45 66.85 93.75 64.4 93.3 61.6 89.75 65.8 84.9 68.0 L81.55 68.9 Q77.8 69.65 74.3 68.3 66.3 65.35 58.25 68.5 47.6 72.7 36.65 75.75 L32.75 76.3 28.15 75.95 Q26.85 75.65 25.7 75.0 L24.5 74.2 24.05 74.25 Q11.75 67.4 6.85 54.5 5.35 50.65 5.45 46.55 5.75 36.0 12.45 27.9 20.35 18.4 31.3 12.7 44.65 5.75 59.35 7.5 L64.15 8.6 Q72.65 11.7 79.6 17.8 L80.3 18.2 Q79.8 17.85 79.9 17.2" fill="#000000" fill-rule="evenodd" stroke="none"/>
      <path d="M79.6 17.8 Q72.65 11.7 64.15 8.6 L59.35 7.5 Q44.65 5.75 31.3 12.7 20.35 18.4 12.45 27.9 5.75 36.0 5.45 46.55 5.35 50.65 6.85 54.5 11.75 67.4 24.05 74.25 L24.5 74.2 25.7 75.0 Q26.85 75.65 28.15 75.95 L32.75 76.3 36.65 75.75 Q47.6 72.7 58.25 68.5 66.3 65.35 74.3 68.3 77.8 69.65 81.55 68.9 L84.9 68.0 Q89.75 65.8 93.3 61.6 93.75 64.4 92.45 66.85 90.9 69.9 87.75 71.3 82.7 73.55 77.15 72.85 L72.65 72.1 67.25 72.4 Q57.35 73.95 48.35 78.05 42.8 80.65 36.65 81.65 32.25 82.2 27.95 81.05 15.25 77.55 7.1 67.2 3.2 62.3 1.85 56.1 -1.85 38.85 7.7 24.0 L7.7 23.4 Q17.7 9.25 34.3 4.4 44.2 1.45 54.3 1.75 70.8 3.2 79.9 17.2 L79.6 17.8" fill="#cccccc" fill-rule="evenodd" stroke="none"/>
      <path d="M41.55 10.0 L39.65 11.5 40.75 10.25 41.55 10.0 M40.7 10.25 Q27.95 17.2 23.5 26.8 17.75 36.65 17.65 47.8 17.6 50.85 18.5 53.8 23.85 63.6 34.75 66.8 L42.0 67.05 Q60.35 51.85 82.75 60.8 85.85 62.5 88.25 60.3 91.15 54.9 93.85 52.85 94.45 57.65 91.65 61.4 86.8 67.95 79.0 67.2 L73.85 66.05 Q64.6 63.15 55.75 67.25 48.05 70.75 40.2 73.55 30.4 77.15 21.85 70.95 L15.95 66.6 Q10.25 62.1 8.2 55.0 4.75 42.9 11.05 31.85 11.55 30.95 12.3 30.3 L13.9 29.0 13.65 28.0 14.1 28.4 Q24.5 14.9 40.7 10.25" fill="#5151cc" fill-rule="evenodd" stroke="none"/>
      <path d="M79.6 17.8 L79.9 17.2 Q79.8 17.85 80.3 18.2 L79.6 17.8" fill="#ffffff" fill-rule="evenodd" stroke="none"/>
      <path d="M81.45 34.25 L81.75 32.65 Q82.15 31.7 83.15 31.15 L84.0 30.8 Q85.65 31.5 86.85 33.05 L87.1 33.45 Q87.45 34.2 87.3 35.05 L86.85 36.25 Q84.5 37.5 82.1 36.25 81.35 35.4 81.45 34.25 M89.0 48.25 Q90.4 48.4 90.75 49.7 L90.85 50.1 Q90.85 51.3 89.8 51.9 L89.0 52.25 Q86.65 51.75 87.25 49.6 87.5 48.75 88.35 48.45 L89.0 48.25 M71.0 15.3 Q84.75 23.0 82.6 27.95 80.4 32.9 78.1 28.45 75.75 24.0 73.0 21.85 70.25 19.65 71.0 15.3" fill="#ababff" fill-rule="evenodd" stroke="none"/>
    </g>
    <g id="sprite7" transform="matrix(1.0, 0.0, 0.0, 1.0, 0.0, 0.0)">
      <use height="35.6" transform="matrix(1.0, 0.0, 0.0, 1.0, 0.0, 0.0)" width="21.55" xlink:href="#shape9"/>
    </g>
    <g id="shape9" transform="matrix(1.0, 0.0, 0.0, 1.0, 0.0, 0.0)">
      <path d="M10.15 1.3 Q10.5 3.25 8.35 6.05 6.75 8.15 4.6 6.8 L3.6 6.1 Q3.9 5.15 4.35 4.25 L4.75 3.3 4.85 3.05 Q5.75 1.1 8.1 0.9 L9.15 1.05 10.15 1.3" fill="#e7e7e7" fill-rule="evenodd" stroke="none"/>
      <path d="M10.15 1.3 L9.15 1.05 8.1 0.9 Q5.75 1.1 4.85 3.05 L4.75 3.3 4.35 4.25 Q3.9 5.15 3.6 6.1 L2.5 9.75 Q1.4 14.5 1.65 19.6 L1.6 23.55 Q1.7 27.6 2.7 30.45 L3.5 32.1 Q4.05 33.15 5.05 33.35 L5.8 32.95 6.15 33.6 6.0 34.4 Q9.15 35.4 12.5 34.5 17.5 32.95 19.0 28.05 21.85 18.55 18.35 9.75 L16.25 5.6 Q13.8 2.3 10.15 1.3 M10.35 15.9 Q10.1 12.45 11.6 9.75 12.3 8.45 13.4 7.35 L14.6 7.15 12.9 9.9 Q18.55 18.75 13.3 27.85 L15.2 29.15 14.0 29.5 Q12.2 28.45 11.9 26.35 L10.35 15.9 M9.85 0.3 Q14.5 1.5 17.2 5.6 18.5 7.6 19.45 9.75 21.4 14.3 21.55 19.3 21.7 25.6 18.55 30.95 16.45 34.5 12.4 35.25 7.5 36.35 3.2 33.85 1.75 31.65 1.2 28.85 0.55 25.7 0.2 22.55 -0.5 15.95 1.1 9.75 2.15 5.75 4.15 1.95 6.2 -0.8 9.85 0.3" fill="#000000" fill-rule="evenodd" stroke="none"/>
      <path d="M3.6 6.1 L4.6 6.8 Q6.75 8.15 8.35 6.05 10.5 3.25 10.15 1.3 13.8 2.3 16.25 5.6 L14.6 7.15 13.4 7.35 Q12.3 8.45 11.6 9.75 10.1 12.45 10.35 15.9 8.75 14.55 6.5 14.5 3.5 16.3 1.65 19.1 L1.65 19.6 Q1.4 14.5 2.5 9.75 L3.6 6.1 M5.05 33.35 Q4.05 33.15 3.5 32.1 L2.7 30.45 5.05 33.35" fill="#cccccc" fill-rule="evenodd" stroke="none"/>
      <path d="M1.65 19.6 L1.65 19.1 Q3.5 16.3 6.5 14.5 8.75 14.55 10.35 15.9 L11.9 26.35 Q12.2 28.45 14.0 29.5 L15.2 29.15 13.3 27.85 Q18.55 18.75 12.9 9.9 L14.6 7.15 16.25 5.6 18.35 9.75 Q21.85 18.55 19.0 28.05 17.5 32.95 12.5 34.5 9.15 35.4 6.0 34.4 L6.15 33.6 5.8 32.95 5.05 33.35 2.7 30.45 Q1.7 27.6 1.6 23.55 L1.65 19.6" fill="#a3a3a3" fill-rule="evenodd" stroke="none"/>
    </g>
    <g id="sprite8" transform="matrix(1.0, 0.0, 0.0, 1.0, 0.0, 0.0)">
      <use height="53.7" transform="matrix(1.0, 0.0, 0.0, 1.0, 0.0, 0.0)" width="51.05" xlink:href="#shape10"/>
    </g>
    <g id="shape10" transform="matrix(1.0, 0.0, 0.0, 1.0, 0.0, 0.0)">
      <path d="M41.4 35.25 L42.6 37.6 46.6 35.6 Q51.95 37.55 50.9 43.3 50.4 45.95 47.95 47.25 39.7 51.5 30.5 52.5 L29.25 52.55 20.85 53.6 17.7 53.5 Q9.75 51.95 5.1 45.4 0.55 39.0 3.0 31.55 4.3 27.55 6.9 24.9 L7.4 25.0 Q14.45 22.1 21.25 19.0 13.2 14.05 3.65 13.2 L4.35 14.5 Q2.8 14.1 1.7 12.7 0.25 10.95 0.05 8.6 -0.45 3.4 3.35 0.35 L4.0 0.0 4.3 0.65 3.0 2.0 11.35 3.85 Q24.0 6.5 33.4 15.3 37.15 18.8 35.5 23.65 34.9 25.5 33.4 26.3 28.55 28.7 23.2 29.6 25.9 31.45 28.55 29.4 29.45 28.7 30.75 28.7 35.4 28.75 36.2 33.2 L40.65 34.6 41.6 33.6 41.4 35.25 M42.35 48.65 Q47.25 47.75 49.8 43.6 L49.8 42.1 Q49.85 37.5 45.8 37.65 L42.8 39.4 Q41.65 45.65 36.8 49.6 L42.35 48.65 M40.6 39.6 L40.85 37.5 37.55 40.8 36.8 41.2 Q39.4 39.1 39.55 35.95 36.45 33.85 33.4 35.2 36.2 37.65 35.9 41.2 35.7 43.95 34.3 46.4 32.8 48.9 30.8 50.6 39.4 48.6 41.4 40.0 L40.6 39.6 M20.0 21.6 L16.15 23.2 Q15.45 23.5 15.0 23.0 L11.35 24.95 10.8 24.8 9.9 26.1 10.0 26.6 Q12.5 29.4 16.4 30.4 20.25 28.0 24.6 27.4 L23.2 26.7 Q20.0 25.15 20.0 21.6 M15.4 10.0 L18.6 7.8 Q10.8 4.4 2.2 3.8 L1.6 4.65 Q1.35 8.35 2.6 11.8 8.85 12.3 15.0 14.2 13.9 12.3 15.4 10.0 M26.8 17.5 Q23.95 18.4 21.65 20.55 L21.6 22.25 Q21.55 23.05 22.0 23.65 23.05 25.0 24.7 25.85 25.6 26.2 26.2 27.0 29.95 26.75 33.1 25.0 35.0 23.9 34.9 21.75 34.7 18.65 32.4 16.4 27.3 11.45 20.8 8.8 L17.0 10.2 15.4 14.4 22.4 17.8 Q22.85 16.85 23.75 16.45 28.85 14.0 32.8 17.4 L32.35 17.75 26.8 17.5 M18.0 34.2 L18.0 32.0 Q11.35 31.85 8.2 26.0 L7.0 26.55 Q5.7 27.8 6.3 29.5 7.5 33.25 11.1 35.15 15.1 37.25 18.0 34.2 M19.4 30.6 Q20.85 33.1 19.2 35.65 18.9 36.05 19.25 36.7 19.6 37.35 20.2 37.6 20.3 39.95 19.2 42.0 19.0 40.0 18.2 38.0 L17.8 37.2 Q13.35 39.1 9.25 35.8 6.7 33.75 4.5 30.95 L3.6 33.4 3.8 33.8 Q1.95 39.25 5.75 43.9 L9.65 48.15 Q15.6 53.45 23.55 52.3 26.6 51.65 29.35 49.9 34.75 46.45 34.35 40.25 L33.9 38.75 Q32.05 35.5 28.75 36.95 26.65 37.85 25.55 40.15 22.4 46.55 15.4 47.0 L14.8 46.2 18.9 44.75 Q18.15 43.9 16.7 43.3 16.3 43.15 16.0 42.8 L21.6 43.2 Q23.9 39.65 26.75 36.55 27.8 35.4 29.1 34.5 L32.4 34.8 34.6 33.2 Q34.5 31.9 33.6 30.95 L33.0 30.4 30.0 30.2 Q27.1 33.25 23.45 31.4 L21.9 30.7 19.4 30.6" fill="#000000" fill-rule="evenodd" stroke="none"/>
      <path d="M40.6 39.6 L41.4 40.0 Q39.4 48.6 30.8 50.6 32.8 48.9 34.3 46.4 35.7 43.95 35.9 41.2 36.2 37.65 33.4 35.2 36.45 33.85 39.55 35.95 39.4 39.1 36.8 41.2 L37.55 40.8 40.85 37.5 40.6 39.6 M42.35 48.65 L36.8 49.6 Q41.65 45.65 42.8 39.4 L45.8 37.65 Q49.85 37.5 49.8 42.1 L49.8 43.6 Q47.25 47.75 42.35 48.65 M19.4 30.6 L21.9 30.7 23.45 31.4 Q27.1 33.25 30.0 30.2 L33.0 30.4 33.6 30.95 Q34.5 31.9 34.6 33.2 L32.4 34.8 29.1 34.5 Q27.8 35.4 26.75 36.55 23.9 39.65 21.6 43.2 L16.0 42.8 Q16.3 43.15 16.7 43.3 18.15 43.9 18.9 44.75 L14.8 46.2 15.4 47.0 Q22.4 46.55 25.55 40.15 26.65 37.85 28.75 36.95 32.05 35.5 33.9 38.75 L34.35 40.25 Q34.75 46.45 29.35 49.9 26.6 51.65 23.55 52.3 15.6 53.45 9.65 48.15 L5.75 43.9 Q1.95 39.25 3.8 33.8 L3.6 33.4 4.5 30.95 Q6.7 33.75 9.25 35.8 13.35 39.1 17.8 37.2 L18.2 38.0 Q19.0 40.0 19.2 42.0 20.3 39.95 20.2 37.6 19.6 37.35 19.25 36.7 18.9 36.05 19.2 35.65 20.85 33.1 19.4 30.6 M18.0 34.2 Q15.1 37.25 11.1 35.15 7.5 33.25 6.3 29.5 5.7 27.8 7.0 26.55 L8.2 26.0 Q11.35 31.85 18.0 32.0 L18.0 34.2" fill="#cccccc" fill-rule="evenodd" stroke="none"/>
      <path d="M26.8 17.5 L32.35 17.75 32.8 17.4 Q28.85 14.0 23.75 16.45 22.85 16.85 22.4 17.8 L15.4 14.4 17.0 10.2 20.8 8.8 Q27.3 11.45 32.4 16.4 34.7 18.65 34.9 21.75 35.0 23.9 33.1 25.0 29.95 26.75 26.2 27.0 25.6 26.2 24.7 25.85 23.05 25.0 22.0 23.65 21.55 23.05 21.6 22.25 L21.65 20.55 Q23.95 18.4 26.8 17.5 M15.4 10.0 Q13.9 12.3 15.0 14.2 8.85 12.3 2.6 11.8 1.35 8.35 1.6 4.65 L2.2 3.8 Q10.8 4.4 18.6 7.8 L15.4 10.0 M20.0 21.6 Q20.0 25.15 23.2 26.7 L24.6 27.4 Q20.25 28.0 16.4 30.4 12.5 29.4 10.0 26.6 L9.9 26.1 10.8 24.8 11.35 24.95 15.0 23.0 Q15.45 23.5 16.15 23.2 L20.0 21.6" fill="#deddcc" fill-rule="evenodd" stroke="none"/>
    </g>
    <g id="sprite9" transform="matrix(1.0, 0.0, 0.0, 1.0, 0.0, 0.0)">
      <use height="34.9" transform="matrix(1.0, 0.0, 0.0, 1.0, 0.0, 0.0)" width="58.65" xlink:href="#shape11"/>
    </g>
    <g id="shape11" transform="matrix(1.0, 0.0, 0.0, 1.0, 0.0, 0.0)">
      <path d="M34.15 1.35 Q34.8 1.2 35.55 1.35 L35.65 1.4 Q39.65 1.65 43.75 2.55 L44.0 2.6 44.05 2.7 Q44.85 2.85 45.6 3.3 L45.75 3.4 46.55 3.9 46.7 4.05 47.35 4.3 47.65 4.45 49.8 5.95 49.85 6.0 49.95 6.1 50.0 6.15 50.1 6.25 51.35 7.9 51.5 8.1 51.55 8.2 51.65 8.35 51.75 8.5 51.8 8.6 Q52.95 10.7 53.3 13.75 L53.45 17.6 Q52.85 19.4 51.35 20.5 L48.95 21.75 47.6 22.2 43.4 23.35 39.9 24.25 35.05 25.1 30.7 25.6 30.75 25.95 30.7 25.95 26.7 26.3 26.35 26.35 26.1 26.35 25.05 26.45 24.25 26.4 Q16.6 26.5 9.75 24.9 L6.05 23.85 Q4.05 22.9 4.0 20.2 L4.3 20.65 5.15 20.9 Q6.6 21.0 10.0 22.1 13.4 23.2 15.4 23.2 L19.75 23.6 Q25.85 22.9 31.15 20.8 37.75 18.15 43.05 13.3 43.5 9.55 41.45 6.8 L41.3 6.4 Q39.4 4.5 36.95 3.2 L36.4 2.95 36.3 2.8 36.25 2.7 Q34.8 2.25 33.75 1.45 L34.15 1.35" fill="#d42a7b" fill-rule="evenodd" stroke="none"/>
      <path d="M56.45 11.8 L57.25 12.95 58.15 15.55 Q58.5 16.85 58.45 18.3 58.35 19.65 58.65 21.9 58.75 22.8 56.55 27.75 L55.85 28.55 Q53.35 31.2 43.1 32.75 L34.25 34.05 32.15 34.2 32.2 34.55 29.9 34.65 21.15 34.9 12.55 34.05 8.75 33.5 4.75 32.55 3.45 32.0 3.45 31.95 Q2.8 31.85 1.7 30.6 0.6 29.35 0.4 28.55 -0.15 26.3 0.1 23.9 0.2 22.8 0.55 21.75 0.95 20.65 1.6 19.7 L2.65 17.75 Q3.8 15.4 5.4 13.4 6.8 11.45 8.55 9.95 14.6 4.65 22.4 2.8 L26.7 1.45 28.7 0.65 28.95 0.65 Q31.8 -0.15 34.85 0.05 L36.7 0.0 Q41.15 0.2 45.1 1.7 L45.65 1.6 46.05 1.65 46.35 2.15 46.4 2.2 48.95 3.45 49.05 3.55 49.2 3.75 49.35 3.95 49.4 4.05 49.4 4.1 Q53.4 6.75 54.55 11.8 L56.45 11.8 M4.0 20.2 Q4.05 22.9 6.05 23.85 L9.75 24.9 Q16.6 26.5 24.25 26.4 L25.05 26.45 26.1 26.35 26.35 26.35 26.7 26.3 30.7 25.95 30.75 25.95 30.7 25.6 35.05 25.1 39.9 24.25 43.4 23.35 47.6 22.2 48.95 21.75 51.35 20.5 Q52.85 19.4 53.45 17.6 L53.3 13.75 Q52.95 10.7 51.8 8.6 L51.75 8.5 51.65 8.35 51.55 8.2 51.5 8.1 51.35 7.9 50.1 6.25 50.0 6.15 49.95 6.1 49.85 6.0 49.8 5.95 47.65 4.45 47.35 4.3 46.7 4.05 46.55 3.9 45.75 3.4 45.6 3.3 Q44.85 2.85 44.05 2.7 L44.0 2.6 43.75 2.55 Q39.65 1.65 35.65 1.4 L35.55 1.35 Q34.8 1.2 34.15 1.35 32.55 1.3 30.95 1.4 L30.45 1.35 30.1 1.4 Q29.05 1.6 28.2 2.2 L26.9 2.6 26.9 2.65 26.7 2.7 23.5 3.7 18.3 5.45 Q12.45 7.65 8.9 11.05 7.0 13.05 4.15 18.45 L3.85 19.0 4.05 19.15 4.0 20.2 M12.5 33.1 L21.7 33.6 26.7 33.85 28.75 33.65 30.0 33.6 32.0 33.5 31.95 33.15 40.45 32.1 Q47.95 30.9 52.55 28.6 57.15 26.25 57.5 19.45 L57.15 16.05 Q56.8 13.25 54.55 12.05 L54.8 15.45 Q55.0 16.5 53.95 18.8 52.85 21.1 51.4 21.95 49.9 22.75 42.7 24.8 37.8 26.2 30.95 26.95 L31.0 27.35 30.55 27.4 28.25 27.55 26.7 27.6 13.75 26.9 10.85 26.45 6.3 25.3 Q3.05 24.35 2.45 20.85 0.95 24.05 1.35 26.9 1.7 29.75 6.45 31.7 8.75 32.6 12.5 33.1" fill="#000000" fill-rule="evenodd" stroke="none"/>
      <path d="M34.15 1.35 L33.75 1.45 Q34.8 2.25 36.25 2.7 L36.3 2.8 36.4 2.95 36.95 3.2 Q39.4 4.5 41.3 6.4 L41.45 6.8 Q43.5 9.55 43.05 13.3 37.75 18.15 31.15 20.8 25.85 22.9 19.75 23.6 L15.4 23.2 Q13.4 23.2 10.0 22.1 6.6 21.0 5.15 20.9 L4.3 20.65 4.0 20.2 4.05 19.15 3.85 19.0 4.15 18.45 Q7.0 13.05 8.9 11.05 12.45 7.65 18.3 5.45 L23.5 3.7 26.7 2.7 26.9 2.65 26.9 2.6 28.2 2.2 Q29.05 1.6 30.1 1.4 L30.45 1.35 30.95 1.4 Q32.55 1.3 34.15 1.35 M18.55 7.05 Q14.55 8.35 11.0 10.9 7.45 13.45 9.5 13.9 L12.15 14.25 16.45 11.5 Q20.1 8.75 19.9 7.9 19.7 7.05 18.55 7.05" fill="#ff3399" fill-rule="evenodd" stroke="none"/>
      <path d="M13.75 26.9 L26.7 27.6 28.25 27.55 30.55 27.4 31.0 27.35 30.95 26.95 Q37.8 26.2 42.7 24.8 49.9 22.75 51.4 21.95 52.85 21.1 53.95 18.8 55.0 16.5 54.8 15.45 L54.55 12.05 Q56.8 13.25 57.15 16.05 L57.5 19.45 Q57.15 26.25 52.55 28.6 47.95 30.9 40.45 32.1 L31.95 33.15 32.0 33.5 30.0 33.6 28.75 33.65 26.7 33.85 21.7 33.6 12.5 33.1 Q11.45 31.2 12.65 28.05 13.0 27.1 13.75 26.9" fill="#734d5c" fill-rule="evenodd" stroke="none"/>
      <path d="M18.55 7.05 Q19.7 7.05 19.9 7.9 20.1 8.75 16.45 11.5 L12.15 14.25 9.5 13.9 Q7.45 13.45 11.0 10.9 14.55 8.35 18.55 7.05" fill="#ff7aba" fill-rule="evenodd" stroke="none"/>
      <path d="M12.5 33.1 Q8.75 32.6 6.45 31.7 1.7 29.75 1.35 26.9 0.95 24.05 2.45 20.85 3.05 24.35 6.3 25.3 L10.85 26.45 13.75 26.9 Q13.0 27.1 12.65 28.05 11.45 31.2 12.5 33.1" fill="#8f5f74" fill-rule="evenodd" stroke="none"/>
    </g>
    <g id="shape12" transform="matrix(1.0, 0.0, 0.0, 1.0, 12.15, -208.65)">
      <path d="M1.9 238.85 Q3.0 244.55 4.4 250.2 L4.65 251.25 7.2 261.85 Q8.2 266.2 9.6 270.8 L9.65 271.05 Q11.65 277.95 14.2 284.55 16.35 290.15 18.95 295.6 L18.6 295.1 19.65 297.2 20.5 298.6 20.65 298.8 19.65 299.75 19.55 299.8 Q19.3 299.9 19.1 300.1 L19.0 300.2 18.85 300.3 17.25 301.25 17.05 301.35 15.45 302.05 11.5 303.1 Q8.85 303.5 6.6 303.1 5.2 302.85 3.95 302.3 3.25 302.05 2.8 301.45 2.2 300.8 2.3 300.1 L2.65 299.05 Q3.25 298.05 3.0 297.0 L3.05 297.0 3.85 288.25 3.05 278.15 -11.2 212.3 -11.55 211.35 -12.15 211.05 -8.9 208.65 -3.35 209.2 -1.85 210.15 -1.45 215.1 Q-0.85 221.9 0.15 228.65 L1.9 238.85 M2.3 265.3 Q2.45 268.2 2.95 271.05 3.55 274.15 4.5 277.1 6.9 276.4 9.1 276.3 L9.85 276.3 9.3 274.15 8.3 270.75 6.8 266.0 Q6.15 264.1 5.95 264.4 L3.2 264.7 2.3 265.3 M3.0 251.5 L2.2 251.35 Q0.65 251.05 -0.65 252.15 L1.9 264.1 Q3.95 263.1 6.2 263.3 5.3 257.0 3.0 251.5 M4.7 278.3 L5.75 288.3 8.05 287.7 Q9.35 287.15 10.85 286.25 L12.55 285.1 10.5 278.3 7.55 277.7 4.7 278.3 M7.95 288.6 L5.4 289.5 4.05 300.5 6.8 301.3 9.65 301.7 14.2 301.15 Q15.85 300.65 17.5 299.75 L18.25 299.3 12.85 286.9 7.95 288.6 M3.05 250.1 L0.5 237.9 Q-1.4 237.45 -2.95 238.4 L-3.15 238.6 -0.85 250.5 3.05 250.1 M31.35 322.2 L31.6 322.15 31.35 322.2 M-4.4 221.95 L-7.1 222.5 -5.6 230.05 -5.55 230.2 -4.55 234.4 -3.85 237.5 Q-2.15 236.0 -0.5 236.05 L0.2 236.1 -0.85 229.85 -1.1 228.65 -2.15 222.7 Q-2.8 221.7 -4.4 221.95 M-4.3 209.65 L-5.1 209.6 Q-7.15 209.35 -9.1 210.0 L-10.3 210.5 -7.55 221.5 -2.6 220.5 -3.3 215.1 -3.55 209.7 -4.3 209.65" fill="#000000" fill-rule="evenodd" stroke="none"/>
      <path d="M3.0 251.5 Q5.3 257.0 6.2 263.3 3.95 263.1 1.9 264.1 L-0.65 252.15 Q0.65 251.05 2.2 251.35 L3.0 251.5 M2.3 265.3 L3.2 264.7 5.95 264.4 Q6.15 264.1 6.8 266.0 L8.3 270.75 9.3 274.15 9.85 276.3 9.1 276.3 Q6.9 276.4 4.5 277.1 3.55 274.15 2.95 271.05 2.45 268.2 2.3 265.3 M4.7 278.3 L7.55 277.7 10.5 278.3 12.55 285.1 10.85 286.25 Q9.35 287.15 8.05 287.7 L5.75 288.3 4.7 278.3 M3.05 250.1 L-0.85 250.5 -3.15 238.6 -2.95 238.4 Q-1.4 237.45 0.5 237.9 L3.05 250.1 M-4.3 209.65 L-3.55 209.7 -3.3 215.1 -2.6 220.5 -7.55 221.5 -10.3 210.5 -9.1 210.0 Q-7.15 209.35 -5.1 209.6 L-4.3 209.65 M-4.4 221.95 Q-2.8 221.7 -2.15 222.7 L-1.1 228.65 -0.85 229.85 0.2 236.1 -0.5 236.05 Q-2.15 236.0 -3.85 237.5 L-4.55 234.4 -5.55 230.2 -5.6 230.05 -7.1 222.5 -4.4 221.95" fill="#deddcc" fill-rule="evenodd" stroke="none"/>
      <path d="M14.2 301.15 L9.65 301.7 6.8 301.3 4.05 300.5 5.4 289.5 7.95 288.6 Q8.5 290.3 9.75 292.2 11.35 294.65 12.5 297.4 L13.05 298.75 Q13.55 300.2 14.2 301.15" fill="#8f5f74" fill-rule="evenodd" stroke="none"/>
      <path d="M14.2 301.15 Q13.55 300.2 13.05 298.75 L12.5 297.4 Q11.35 294.65 9.75 292.2 8.5 290.3 7.95 288.6 L12.85 286.9 18.25 299.3 17.5 299.75 Q15.85 300.65 14.2 301.15" fill="#734d5c" fill-rule="evenodd" stroke="none"/>
    </g>
    <g id="sprite10" transform="matrix(1.0, 0.0, 0.0, 1.0, -0.05, 0.0)">
      <use height="51.3" transform="matrix(1.0, 0.0, 0.0, 1.0, 0.05, 0.0)" width="41.25" xlink:href="#shape13"/>
    </g>
    <g id="shape13" transform="matrix(1.0, 0.0, 0.0, 1.0, -0.05, 0.0)">
      <path d="M16.8 39.6 L17.9 40.25 23.4 37.95 Q26.4 37.0 33.55 38.6 L34.2 38.75 34.8 39.0 34.95 38.8 36.6 37.1 Q41.15 33.15 40.45 27.1 L39.5 25.7 38.45 25.4 Q35.25 24.4 32.45 22.65 L27.65 19.25 24.6 16.5 23.5 15.3 Q19.65 11.15 15.3 7.6 L13.7 6.1 Q7.25 1.3 4.95 1.9 2.95 5.75 2.75 7.35 L2.15 10.25 2.35 9.95 2.0 11.1 Q0.8 16.2 3.3 22.9 L4.55 25.85 Q8.25 33.5 15.75 39.1 L15.95 39.05 16.8 39.6 M32.35 21.1 Q36.25 23.2 40.45 25.0 L40.7 25.9 Q43.05 33.85 36.2 38.8 L34.95 39.85 Q35.4 41.75 34.8 43.85 34.3 45.8 33.05 47.65 33.1 48.3 31.5 49.65 L29.95 49.55 Q27.25 49.2 24.75 50.45 L23.5 51.3 Q18.4 48.65 17.65 42.95 L17.55 42.05 Q7.6 36.35 2.55 26.25 0.2 21.7 0.05 16.4 -0.2 7.55 3.8 0.6 7.05 -1.05 11.0 1.85 19.45 7.85 30.1 19.8 L32.35 21.1 M22.1 40.0 L20.65 40.55 20.5 40.6 19.3 41.4 19.3 42.65 19.35 43.45 Q19.55 45.35 20.4 46.9 L20.7 47.35 20.85 47.6 Q21.55 48.6 22.65 49.4 L22.75 50.05 24.55 49.25 Q28.05 46.95 31.6 47.85 34.5 44.7 33.65 40.7 31.3 38.65 27.9 38.75 24.9 39.0 22.1 40.0" fill="#000000" fill-rule="evenodd" stroke="none"/>
      <path d="M2.35 9.95 L2.15 10.25 2.75 7.35 Q2.95 5.75 4.95 1.9 7.25 1.3 13.7 6.1 L15.3 7.6 Q19.65 11.15 23.5 15.3 L24.6 16.5 27.65 19.25 32.45 22.65 Q35.25 24.4 38.45 25.4 L39.5 25.7 40.45 27.1 Q41.15 33.15 36.6 37.1 L34.95 38.8 34.8 39.0 34.2 38.75 33.55 38.6 Q26.4 37.0 23.4 37.95 L17.9 40.25 16.8 39.6 Q20.55 35.3 23.85 34.7 27.15 34.05 25.35 29.6 12.6 19.15 2.35 9.95" fill="#a3a3a3" fill-rule="evenodd" stroke="none"/>
      <path d="M16.8 39.6 L15.95 39.05 15.75 39.1 Q8.25 33.5 4.55 25.85 8.9 23.15 7.3 17.7 5.85 12.9 2.0 11.1 L2.35 9.95 Q12.6 19.15 25.35 29.6 27.15 34.05 23.85 34.7 20.55 35.3 16.8 39.6 M20.85 47.6 L20.7 47.35 20.4 46.9 Q19.55 45.35 19.35 43.45 L19.3 42.65 19.3 41.4 20.5 40.6 20.65 40.55 22.1 40.0 22.35 40.55 Q24.1 45.3 20.85 47.6" fill="#cccccc" fill-rule="evenodd" stroke="none"/>
      <path d="M4.55 25.85 L3.3 22.9 Q0.8 16.2 2.0 11.1 5.85 12.9 7.3 17.7 8.9 23.15 4.55 25.85" fill="#e7e7e7" fill-rule="evenodd" stroke="none"/>
      <path d="M22.1 40.0 Q24.9 39.0 27.9 38.75 31.3 38.65 33.65 40.7 34.5 44.7 31.6 47.85 28.05 46.95 24.55 49.25 L22.75 50.05 22.65 49.4 Q21.55 48.6 20.85 47.6 24.1 45.3 22.35 40.55 L22.1 40.0" fill="#999999" fill-rule="evenodd" stroke="none"/>
    </g>
  </defs>
</svg>
